# xmcd
#
# Track frame offsets: 
#        150
#        14263
#        23083
#        35363
#        50410
#        59475
#        72912
#        89236
#        100417
#        111191
#
# Disc length: 1631 seconds
#
# Revision: 0
# Processed by: cddbd v1.5.2PL0 Copyright (c) Steve Scherf et al.
# Submitted via: ExactAudioCopy v0.99pb4
#
DISCID=87065d0a
DTITLE=Various Artist - Old Christmas Card
DYEAR=2007
DGENRE=Country
TTITLE0=Mel Street - An Old Christmas Card
TTITLE1=Bobby Helms - Jingle Bell Rock
TTITLE2=Floyd Cramer - Medley: Deck The Halls - O Come All Ye Faithful;
TTITLE2=O Holy Night
TTITLE3=Skeeter Davis - Silent Night
TTITLE4=American Banjo - Little Drummer Boy
TTITLE5=David Frizzell - Little Lord Jesus
TTITLE6=Jack Greene - I'd Be Home On Christmas Day
TTITLE7=Lacy J. Dalton - Here Comes Santa Claus
TTITLE8=Jimmy Griggs - White Christmas
TTITLE9=Terry Cobb - Please Come Home For Christmas
EXTD=
EXTT0=
EXTT1=
EXTT2=
EXTT3=
EXTT4=
EXTT5=
EXTT6=
EXTT7=
EXTT8=
EXTT9=
PLAYORDER=
